STARTFONT 2.1
FONT -FontForge-Earth Heart-Book-R-Normal--57-550-75-75-P-306-ISO10646-1
SIZE 55 75 75
FONTBOUNDINGBOX 60 54 0 -11
COMMENT "Generated by fontforge, http://fontforge.sourceforge.net"
COMMENT "weknow (c) (weknow.deviantart.com). 2012. All Rights Reserved"
STARTPROPERTIES 40
FOUNDRY "FontForge"
FAMILY_NAME "Earth Heart"
WEIGHT_NAME "Book"
SLANT "R"
SETWIDTH_NAME "Normal"
ADD_STYLE_NAME ""
PIXEL_SIZE 57
POINT_SIZE 550
RESOLUTION_X 75
RESOLUTION_Y 75
SPACING "P"
AVERAGE_WIDTH 306
CHARSET_REGISTRY "ISO10646"
CHARSET_ENCODING "1"
FONTNAME_REGISTRY ""
CHARSET_COLLECTIONS "Symbol ISO10646-1"
FONT_NAME "EarthHeart"
FACE_NAME "Earth Heart"
COPYRIGHT "weknow (c) (weknow.deviantart.com). 2012. All Rights Reserved"
FONT_VERSION "1.00;March 22, 2018;FontCreator 11.5.0.2422 64-bit"
FONT_ASCENT 46
FONT_DESCENT 11
UNDERLINE_POSITION -8
UNDERLINE_THICKNESS 5
X_HEIGHT 27
CAP_HEIGHT 36
DEFAULT_CHAR 1
RAW_ASCENT 799
RAW_DESCENT 200
NORM_SPACE 14
RELATIVE_WEIGHT 40
RELATIVE_SETWIDTH 50
SUPERSCRIPT_X 0
SUPERSCRIPT_Y 27
SUPERSCRIPT_SIZE 37
SUBSCRIPT_X 0
SUBSCRIPT_Y 7
SUBSCRIPT_SIZE 37
AVG_LOWERCASE_WIDTH 288
AVG_UPPERCASE_WIDTH 359
ENDPROPERTIES
CHARS 244
STARTCHAR .null.dup1
ENCODING 0
SWIDTH 0 0
DWIDTH 0 0
BBX 1 1 0 0
BITMAP
00
ENDCHAR
STARTCHAR .null
ENCODING 29
SWIDTH 0 0
DWIDTH 0 0
BBX 1 1 0 0
BITMAP
00
ENDCHAR
STARTCHAR space
ENCODING 32
SWIDTH 248 0
DWIDTH 14 0
BBX 1 1 0 0
BITMAP
00
ENDCHAR
STARTCHAR exclam
ENCODING 33
SWIDTH 236 0
DWIDTH 14 0
BBX 9 37 2 0
BITMAP
1E00
7F00
7F80
FF80
FF80
FF80
FF80
FF80
FF80
FF80
FF80
FF80
FF80
FF80
FF80
FF80
FF80
FF80
FF80
FF80
7F80
7F00
1E00
0000
0000
0000
0000
0000
3E00
7F00
FF80
FF80
FF80
FF80
7F80
7F00
1E00
ENDCHAR
STARTCHAR quotedbl
ENCODING 34
SWIDTH 420 0
DWIDTH 24 0
BBX 20 13 2 24
BITMAP
1E0780
7F0FE0
7F9FE0
FF9FF0
FF9FF0
FF9FF0
FF9FF0
7F9FE0
3F0FE0
1F07C0
3E07C0
3E0780
1C0300
ENDCHAR
STARTCHAR numbersign
ENCODING 35
SWIDTH 736 0
DWIDTH 42 0
BBX 38 37 2 0
BITMAP
007C00F800
00FE01FC00
01FF03FE00
01FFFFFE00
03FFFFFF00
03FFFFFF00
0FFFFFFFC0
3FFFFFFFF0
7FFFFFFFF8
FFFFFFFFFC
FFFFFFFFFC
FFFFFFFFFC
FFFF87FFFC
7FF8007FF8
3FF8007FF0
0FF8007FC0
0FF8007FC0
0FF8007FC0
0FF8007FC0
0FF8007FC0
0FF8007FC0
0FF8007FC0
3FF8007FF0
7FF8007FF8
FFFFFFFFFC
FFFFFFFFFC
FFFFFFFFFC
FFFFFFFFFC
7FFFFFFFF8
3FFFFFFFF0
0FFFFFFFC0
03FFFFFF00
03FFFFFF00
01FF03FE00
01FF03FE00
00FE01FC00
0078007800
ENDCHAR
STARTCHAR dollar
ENCODING 36
SWIDTH 612 0
DWIDTH 35 0
BBX 31 47 2 -5
BITMAP
0007C000
000FE000
001FF000
001FF000
001FF000
001FF000
00FFFF00
03FFFFC0
0FFFFFF0
1FFFFFF8
3FFFFFFC
3FFFFFFC
7FFFFFFE
7FFFFFFE
FFFFFFFE
FFFFF7FC
FF9FF1F8
FFDFF070
FFFFF000
7FFFF000
7FFFFE00
7FFFFF80
3FFFFFE0
1FFFFFF0
0FFFFFF8
03FFFFF8
01FFFFFC
003FFFFC
001FFFFE
0C1FF7FE
3F1FF7FE
7F9FFFFE
FFFFFFFE
FFFFFFFC
FFFFFFFC
FFFFFFF8
7FFFFFF8
3FFFFFF0
1FFFFFE0
07FFFF80
01FFFE00
003FF000
001FF000
001FF000
001FF000
000FE000
0007C000
ENDCHAR
STARTCHAR percent
ENCODING 37
SWIDTH 1084 0
DWIDTH 62 0
BBX 58 37 2 0
BITMAP
01FE000007F00000
07CFC0000FF00000
1FC7E0001FF00000
3FC7F0003FE00000
7FC7F8003FC00000
7FC7FC007FC00000
FF87FC00FF800000
FF87FC01FF000000
FF87FE01FF000000
FF87FC03FE000000
FF87FC07FC000000
7F87FC0FFC000000
7FC7F80FF8000000
3FC7F81FF0000000
1FC7F03FF0000000
0FC7C07FE03FE000
03CF807FC0FFF800
003000FFC1FFFC00
000001FF83FFFE00
000003FF07FFFF00
000003FF07FFFF00
000007FE0FFFFF80
00000FFC0FFFFF80
00001FFC0FFFFF80
00001FF81FF8FFC0
00003FF01FF8FFC0
00007FF01FF8FFC0
0000FFE01FFDFFC0
0000FFC00FFFFF80
0001FFC00FFFFF80
0003FF800FFFFF80
0003FF0007FFFF00
0003FF0007FFFF00
0003FE0003FFFE00
0003FC0001FFFC00
0001FC00007FF000
0000F000001FC000
ENDCHAR
STARTCHAR ampersand
ENCODING 38
SWIDTH 719 0
DWIDTH 41 0
BBX 37 37 2 0
BITMAP
001FF80000
00FFFE0000
03FFFF8000
07FFFFE000
0FFFFFF000
1FFFFFF800
3FFFFFF800
7FFFFFFC00
7FFFFFFC00
7FFC7FFE00
7FF00FFE00
7FE007FE00
7FF007FE00
7FF01FFE00
3FFFFFFC00
3FFFFFFC00
1FFFFFF800
0FFFFFF800
1FFFFFF000
3FFFFFE000
7FFFFF8000
7FFFFE0000
7FFFFC03C0
FFFFFE07F0
FFFFFF8FF0
FFDFFFFFF8
FFEFFFFFF8
FFFFFFFFF8
7FFFFFFFF8
7FFFFFFFF0
3FFFFFFFF0
3FFFFFFFF0
1FFFFFFFF0
0FFFFFFFF0
03FFFFFFE0
00FFFFFFE0
001FFC0780
ENDCHAR
STARTCHAR quotesingle
ENCODING 39
SWIDTH 236 0
DWIDTH 14 0
BBX 9 13 2 24
BITMAP
1E00
7F00
7F80
FF80
FF80
FF80
FF80
7F80
3F00
1F00
3E00
3E00
1C00
ENDCHAR
STARTCHAR parenleft
ENCODING 40
SWIDTH 354 0
DWIDTH 20 0
BBX 16 47 2 -5
BITMAP
007C
00FE
01FF
01FF
03FF
07FF
07FF
0FFE
0FFC
1FFC
1FF8
3FF8
3FF0
3FF0
7FE0
7FE0
7FC0
7FC0
FFC0
FFC0
FFC0
FF80
FF80
FF80
FF80
FF80
FF80
FF80
7FC0
7FC0
7FC0
7FC0
7FE0
3FE0
3FF0
3FF0
1FF8
1FFC
0FFC
0FFE
07FF
07FF
03FF
01FF
01FF
00FE
0078
ENDCHAR
STARTCHAR parenright
ENCODING 41
SWIDTH 354 0
DWIDTH 20 0
BBX 16 47 2 -5
BITMAP
1E00
7F00
7F80
FFC0
FFC0
FFE0
FFE0
7FF0
3FF0
3FF8
1FF8
0FFC
0FFC
07FE
07FE
07FE
03FE
03FF
03FF
03FF
01FF
01FF
01FF
01FF
01FF
01FF
01FF
03FF
03FF
03FF
03FF
07FF
07FE
0FFE
0FFE
1FFC
1FFC
3FF8
3FF8
7FF0
FFF0
FFE0
FFC0
FFC0
7F80
7F00
1E00
ENDCHAR
STARTCHAR asterisk
ENCODING 42
SWIDTH 437 0
DWIDTH 25 0
BBX 21 19 2 18
BITMAP
00F800
01FC00
03FE00
1FFFC0
7FFFF0
7FFFF0
FFFFF8
FFFFF8
FFFFF8
FFFFF8
7FFFF0
7FFFF0
FFFFF0
FFFFF8
FFFFF8
FFFFF8
7FDFF0
7F8FF0
1E03C0
ENDCHAR
STARTCHAR plus
ENCODING 43
SWIDTH 584 0
DWIDTH 33 0
BBX 29 29 2 4
BITMAP
00078000
001FC000
003FE000
003FE000
003FE000
003FE000
003FE000
003FE000
003FE000
003FE000
3FFFFFE0
7FFFFFF0
FFFFFFF8
FFFFFFF8
FFFFFFF8
FFFFFFF8
7FFFFFF8
7FFFFFF0
1FFFFFE0
003FE000
003FE000
003FE000
003FE000
003FE000
003FE000
003FE000
001FE000
001FC000
00078000
ENDCHAR
STARTCHAR comma
ENCODING 44
SWIDTH 236 0
DWIDTH 14 0
BBX 9 13 2 -3
BITMAP
1E00
7F00
7F80
FF80
FF80
FF80
FF80
7F80
3F00
1F00
3E00
3E00
1C00
ENDCHAR
STARTCHAR hyphen
ENCODING 45
SWIDTH 584 0
DWIDTH 33 0
BBX 29 9 2 14
BITMAP
3FFFFFE0
7FFFFFF0
FFFFFFF8
FFFFFFF8
FFFFFFF8
FFFFFFF8
7FFFFFF8
7FFFFFF0
1FFFFFE0
ENDCHAR
STARTCHAR period
ENCODING 46
SWIDTH 236 0
DWIDTH 14 0
BBX 9 9 2 0
BITMAP
3E00
7F00
FF80
FF80
FF80
FF80
7F80
7F00
1E00
ENDCHAR
STARTCHAR slash
ENCODING 47
SWIDTH 605 0
DWIDTH 35 0
BBX 30 37 2 0
BITMAP
000000F0
000003F8
000003FC
000007FC
00000FFC
00001FFC
00001FFC
00003FFC
00007FF8
0000FFF0
0001FFE0
0001FFE0
0003FFC0
0007FF80
000FFF00
000FFE00
001FFE00
003FFC00
007FF800
007FF000
00FFF000
01FFE000
03FFC000
03FF8000
07FF8000
0FFF0000
1FFE0000
1FFC0000
3FFC0000
7FF80000
FFF00000
FFE00000
FFC00000
FFC00000
7F800000
7F000000
1E000000
ENDCHAR
STARTCHAR zero
ENCODING 48
SWIDTH 611 0
DWIDTH 35 0
BBX 31 37 2 0
BITMAP
000FE000
007FF800
00FFFE00
03FFFF00
07FFFF80
07FFFFC0
0FFFFFE0
1FFFFFF0
1FFFFFF0
3FFC7FF8
3FF83FF8
7FF01FFC
7FE00FFC
7FC00FFC
FFC007FC
FFC007FE
FFC007FE
FF8007FE
FF8007FE
FF8007FE
FFC007FE
FFC007FE
FFC007FC
7FC00FFC
7FE00FFC
7FF01FFC
3FF83FF8
3FFC7FF8
3FFFFFF0
1FFFFFF0
0FFFFFE0
0FFFFFC0
07FFFFC0
03FFFF80
00FFFE00
007FFC00
000FE000
ENDCHAR
STARTCHAR one
ENCODING 49
SWIDTH 291 0
DWIDTH 17 0
BBX 13 37 2 0
BITMAP
1E00
7F00
7F80
FF80
FFC0
FFC0
7FE0
7FE0
7FE0
3FE0
3FF0
3FF0
1FF0
1FF0
1FF0
1FF0
1FF0
1FF8
1FF8
1FF8
1FF0
1FF0
1FF0
1FF0
1FF0
3FF0
3FF0
3FF0
7FE0
7FE0
7FE0
FFC0
FFC0
FF80
7F80
7F00
1E00
ENDCHAR
STARTCHAR two
ENCODING 50
SWIDTH 612 0
DWIDTH 35 0
BBX 31 37 2 0
BITMAP
001FF000
01FFFE00
07FFFF80
1FFFFFC0
3FFFFFF0
7FFFFFF8
FFFFFFF8
FFFFFFFC
FFFFFFFC
FFF87FFE
7FC00FFE
7F0007FE
1E0007FE
00001FFE
001FFFFC
00FFFFFC
03FFFFF8
0FFFFFF8
1FFFFFF0
3FFFFFE0
3FFFFFC0
7FFFFF00
7FFFF800
FFFC0000
FFE00020
FF8001F8
FFC003FC
FFFC3FFE
7FFFFFFE
7FFFFFFE
3FFFFFFE
3FFFFFFC
1FFFFFF8
0FFFFFF0
03FFFFC0
00FFFF00
001FF000
ENDCHAR
STARTCHAR three
ENCODING 51
SWIDTH 611 0
DWIDTH 35 0
BBX 31 37 2 0
BITMAP
001FF000
01FFFE00
07FFFF80
1FFFFFC0
3FFFFFF0
7FFFFFF8
FFFFFFF8
FFFFFFFC
FFFFFFFC
FFF87FFE
7FC00FFE
7F0007FE
1E0007FE
00001FFE
0007FFFC
000FFFFC
001FFFFC
001FFFF8
001FFFF0
001FFFF8
001FFFF8
000FFFFC
0007FFFC
00007FFE
08000FFE
3F0007FE
7F800FFE
FFF83FFE
FFFFFFFC
FFFFFFFC
FFFFFFF8
7FFFFFF8
3FFFFFF0
1FFFFFE0
07FFFF80
01FFFE00
003FF000
ENDCHAR
STARTCHAR four
ENCODING 52
SWIDTH 611 0
DWIDTH 35 0
BBX 31 37 2 0
BITMAP
03C00780
0FE01FC0
0FF01FE0
1FF03FF0
1FF83FF0
3FF03FF8
3FF01FF8
3FF01FF8
7FE00FFC
7FE00FFC
7FC00FFC
7FC007FC
7FC007FC
FFC007FC
FFFFFFFE
FFFFFFFE
FFFFFFFE
FFFFFFFE
FFFFFFFE
FFFFFFFE
7FFFFFFE
7FFFFFFE
1FFFFFFE
000007FC
000007FC
000007FC
00000FFC
00000FFC
00000FFC
00001FF8
00001FF8
00003FF8
00003FF0
00003FF0
00001FE0
00000FC0
00000780
ENDCHAR
STARTCHAR five
ENCODING 53
SWIDTH 612 0
DWIDTH 35 0
BBX 31 37 2 0
BITMAP
03FE0000
0FFFF000
0FFFFF00
1FFFFFE0
1FFFFFF8
3FFFFFFC
3FFFFFFC
3FFFFFFE
7FFFFFFE
7FE3FFFE
7FC00FFC
7FC001F8
7FC00060
FFC00000
FFFFF800
FFFFFE00
FFFFFF80
FFFFFFE0
FFFFFFF0
FFFFFFF8
7FFFFFF8
7FFFFFFC
1FFFFFFC
00007FFE
080007FE
3F0007FE
7F800FFE
FFF83FFE
FFFFFFFC
FFFFFFFC
FFFFFFF8
7FFFFFF8
3FFFFFF0
1FFFFFE0
07FFFF80
01FFFE00
003FF000
ENDCHAR
STARTCHAR six
ENCODING 54
SWIDTH 612 0
DWIDTH 35 0
BBX 31 37 2 0
BITMAP
000FF000
007FFF00
00FFFFC0
03FFFFF0
07FFFFF8
0FFFFFFC
0FFFFFFC
1FFFFFFE
3FFFFFFE
3FFC3FFE
7FF807FC
7FF001F8
7FE000F0
7FC00000
FFDFF000
FFFFFE00
FFFFFF80
FFFFFFE0
FFFFFFF0
FFFFFFF8
FFFFFFF8
FFFFFFFC
FFFFFFFC
7FFC7FFE
7FE007FE
7FF007FE
3FF00FFE
3FFC7FFE
3FFFFFFC
1FFFFFFC
0FFFFFF8
0FFFFFF8
07FFFFF0
03FFFFE0
00FFFF80
007FFE00
000FF000
ENDCHAR
STARTCHAR seven
ENCODING 55
SWIDTH 538 0
DWIDTH 31 0
BBX 27 37 2 0
BITMAP
00FE0000
03FF8000
0FFFE000
1FFFF000
3FFFF800
7FFFFC00
7FFFFE00
FFFFFF00
FFFFFF00
FFEFFF80
FF83FF80
7F81FFC0
3F00FFC0
0C00FFC0
001FFFC0
003FFFC0
003FFFE0
007FFFE0
007FFFE0
007FFFE0
003FFFE0
003FFFC0
000FFFC0
00007FC0
00007FC0
0000FFC0
0000FFC0
0000FFC0
0001FF80
0001FF80
0001FF80
0003FF00
0003FF00
0003FE00
0001FE00
0001FC00
00007800
ENDCHAR
STARTCHAR eight
ENCODING 56
SWIDTH 612 0
DWIDTH 35 0
BBX 31 37 2 0
BITMAP
000FE000
003FF800
00FFFE00
01FFFF00
03FFFF80
03FFFF80
07FFFFC0
07FFFFC0
0FFFFFE0
0FFEFFE0
0FF87FE0
0FF83FE0
0FF83FE0
0FFC7FE0
0FFFFFE0
07FFFFC0
07FFFFC0
0FFFFFE0
1FFFFFF0
3FFFFFF8
7FFFFFF8
7FFFFFFC
7FFFFFFC
FFF83FFE
FFE00FFE
FF8007FE
FFC00FFE
FFF87FFE
7FFFFFFC
7FFFFFFC
3FFFFFF8
3FFFFFF8
1FFFFFF0
0FFFFFE0
03FFFF80
00FFFE00
001FF000
ENDCHAR
STARTCHAR nine
ENCODING 57
SWIDTH 611 0
DWIDTH 35 0
BBX 31 37 2 0
BITMAP
001FE000
00FFFC00
03FFFE00
0FFFFF00
1FFFFFC0
3FFFFFC0
3FFFFFE0
7FFFFFF0
7FFFFFF0
FFFC7FF8
FFC03FF8
FF801FFC
FFC00FFC
FFF87FFC
7FFFFFFC
7FFFFFFE
3FFFFFFE
3FFFFFFE
1FFFFFFE
0FFFFFFE
03FFFFFE
00FFFFFE
001FF7FC
00000FFC
1C000FFC
3F001FFC
7FC03FF8
FFF87FF8
FFFFFFF0
FFFFFFF0
FFFFFFE0
7FFFFFC0
3FFFFFC0
1FFFFF00
07FFFE00
01FFFC00
003FE000
ENDCHAR
STARTCHAR colon
ENCODING 58
SWIDTH 236 0
DWIDTH 14 0
BBX 9 26 2 6
BITMAP
1E00
7F00
7F80
FF80
FF80
FF80
FF80
7F00
3E00
0000
0000
0000
0000
0000
0000
0000
0000
3E00
7F00
FF80
FF80
FF80
FF80
7F80
7F00
1E00
ENDCHAR
STARTCHAR semicolon
ENCODING 59
SWIDTH 236 0
DWIDTH 14 0
BBX 9 29 2 2
BITMAP
3E00
7F00
FF80
FF80
FF80
FF80
7F80
7F00
1E00
0000
0000
0000
0000
0000
0000
0000
0800
3F00
7F80
FF80
FF80
FF80
FF80
7F80
3F80
1F00
3E00
3E00
1C00
ENDCHAR
STARTCHAR less
ENCODING 60
SWIDTH 614 0
DWIDTH 35 0
BBX 31 34 2 1
BITMAP
000000F0
000003FC
000007FC
00001FFE
00007FFE
0001FFFE
0003FFFE
000FFFFC
003FFFF8
007FFFE0
01FFFF80
07FFFF00
1FFFFC00
3FFFF000
7FFFC000
FFFF8000
FFFE0000
FFFE0000
FFFF8000
7FFFC000
3FFFF000
1FFFFC00
07FFFE00
01FFFF80
007FFFE0
003FFFF8
000FFFFC
0003FFFC
0000FFFE
00007FFE
00001FFE
000007FC
000003FC
000000F0
ENDCHAR
STARTCHAR equal
ENCODING 61
SWIDTH 584 0
DWIDTH 33 0
BBX 29 26 2 6
BITMAP
1FFFFFE0
7FFFFFF0
7FFFFFF8
FFFFFFF8
FFFFFFF8
FFFFFFF8
FFFFFFF8
7FFFFFF0
3FFFFFE0
00000000
00000000
00000000
00000000
00000000
00000000
00000000
00000000
3FFFFFE0
7FFFFFF0
FFFFFFF8
FFFFFFF8
FFFFFFF8
FFFFFFF8
7FFFFFF8
7FFFFFF0
1FFFFFE0
ENDCHAR
STARTCHAR greater
ENCODING 62
SWIDTH 614 0
DWIDTH 35 0
BBX 31 34 2 1
BITMAP
1E000000
7F800000
7FC00000
FFF00000
FFFC0000
FFFF0000
7FFF8000
7FFFE000
3FFFF800
0FFFFC00
03FFFF00
00FFFFC0
007FFFF0
001FFFF8
0007FFFC
0003FFFE
0000FFFE
0000FFFE
0001FFFE
0007FFFC
001FFFF8
007FFFF0
00FFFFC0
03FFFF00
0FFFFC00
3FFFF800
7FFFE000
FFFF8000
FFFF0000
FFFC0000
FFF00000
7FC00000
7F800000
3E000000
ENDCHAR
STARTCHAR question
ENCODING 63
SWIDTH 667 0
DWIDTH 38 0
BBX 34 37 2 0
BITMAP
000FFE0000
007FFFC000
03FFFFF000
07FFFFF800
1FFFFFFE00
3FFFFFFF00
3FFFFFFF00
7FFFFFFF80
7FFFFFFF80
FFFE1FFFC0
FFE001FFC0
FFC0007FC0
FF8000FFC0
7F8003FFC0
3F007FFFC0
0001FFFF80
0003FFFF80
0007FFFF80
0007FFFF00
000FFFFE00
000FFFFC00
000FFFF000
0007FF0000
0007F80000
0003F00000
0000800000
0000000000
0000000000
0003F00000
0007F80000
0007F80000
000FFC0000
000FFC0000
000FFC0000
0007F80000
0003F00000
0001E00000
ENDCHAR
STARTCHAR at
ENCODING 64
SWIDTH 742 0
DWIDTH 42 0
BBX 38 37 2 0
BITMAP
0001FE0000
001FFFC000
007FFFF000
00FFFFFC00
01FFFFFE00
03FFFFFF00
07FFFFFF80
0FFFFFFFC0
1FFFFFFFC0
3FFF8FFFE0
3FFC01FFF0
7FF8007FF0
7FF0783FF0
7FE1FE1FF8
7FC3FF1FF8
FFC7FF0FF8
FFC7FFFFF8
FF8FFFFFF8
FF8FFFFFF8
FF8FFFFFF8
FFC7FFFFF8
FFC7FFFFF0
FFC3FFFFE0
7FE1FFFFC0
7FF0FFFF00
7FF8000000
3FFC000000
3FFF800000
1FFFFFFFF0
0FFFFFFFF8
07FFFFFFFC
07FFFFFFFC
01FFFFFFFC
00FFFFFFFC
007FFFFFFC
001FFFFFF8
0003FFFFF0
ENDCHAR
STARTCHAR A
ENCODING 65
SWIDTH 612 0
DWIDTH 35 0
BBX 31 37 2 0
BITMAP
0007E000
003FF800
007FFC00
00FFFE00
01FFFF00
03FFFF80
03FFFF80
07FFFFC0
07FFFFC0
0FFEFFE0
0FFC7FE0
1FFC7FF0
1FF83FF0
1FF83FF0
3FF01FF0
3FF01FF8
3FF01FF8
3FE00FF8
7FE00FF8
7FE00FFC
7FE00FFC
7FC7C7FC
7FFFFFFC
7FFFFFFC
FFFFFFFC
FFFFFFFC
FFFFFFFE
FFFFFFFE
FFFFFFFE
FFFFFFFE
FFFEFFFE
FFF01FFE
FF8007FE
FF8003FE
7F8003FC
7F0001FC
1E0000F0
ENDCHAR
STARTCHAR B
ENCODING 66
SWIDTH 545 0
DWIDTH 31 0
BBX 27 37 2 0
BITMAP
000FE000
007FF800
00FFFE00
03FFFF00
07FFFF80
0FFFFF80
0FFFFFC0
1FFFFFC0
3FFFFFE0
3FFCFFE0
7FF87FE0
7FF03FE0
7FE03FE0
7FC07FE0
FFC7FFE0
FFCFFFC0
FFDFFFC0
FF9FFF80
FF9FFF80
FF9FFF80
FFDFFFC0
FFCFFFC0
FFC7FFE0
7FC0FFE0
7FE07FE0
7FF03FE0
3FF07FE0
3FFCFFE0
3FFFFFE0
1FFFFFE0
0FFFFFC0
0FFFFF80
07FFFF80
03FFFF00
00FFFE00
007FF800
000FE000
ENDCHAR
STARTCHAR C
ENCODING 67
SWIDTH 539 0
DWIDTH 31 0
BBX 27 37 2 0
BITMAP
000FE000
007FF800
00FFFE00
03FFFF00
07FFFF80
0FFFFF80
0FFFFFC0
1FFFFFC0
3FFFFFE0
3FFCFFE0
7FF87FC0
7FF03FC0
7FE01F80
7FC00F00
FFC00000
FFC00000
FFC00000
FF800000
FF800000
FF800000
FFC00000
FFC00000
FFC00000
7FC00F00
7FE01F80
7FF03FC0
3FF87FC0
3FFC7FE0
3FFFFFE0
1FFFFFC0
0FFFFFC0
0FFFFF80
07FFFF80
03FFFF00
00FFFE00
007FFC00
000FE000
ENDCHAR
STARTCHAR D
ENCODING 68
SWIDTH 539 0
DWIDTH 31 0
BBX 27 37 2 0
BITMAP
00FE0000
03FF8000
0FFFE000
1FFFF000
3FFFF800
7FFFFC00
7FFFFE00
FFFFFF00
FFFFFF00
FFEFFF80
FF83FF80
FF81FFC0
FF80FFC0
FF80FFC0
FF807FC0
FF807FC0
FF807FE0
FF807FE0
FF807FE0
FF807FE0
FF807FE0
FF807FC0
FF807FC0
FF80FFC0
FF80FFC0
FF81FFC0
FF83FF80
FFEFFF80
FFFFFF00
FFFFFF00
7FFFFE00
7FFFFC00
3FFFF800
1FFFF000
0FFFE000
03FF8000
00FE0000
ENDCHAR
STARTCHAR E
ENCODING 69
SWIDTH 539 0
DWIDTH 31 0
BBX 27 37 2 0
BITMAP
000FE000
007FF800
00FFFE00
03FFFF00
07FFFF80
0FFFFF80
0FFFFFC0
1FFFFFC0
3FFFFFE0
3FFCFFE0
7FF87FC0
7FF03FC0
7FE03F80
7FE00F00
FFFE0000
FFFF0000
FFFF8000
FFFF8000
FFFF8000
FFFF8000
FFFF8000
FFFF0000
FFFE0000
7FC00F00
7FE01F80
7FF03FC0
3FF07FC0
3FFCFFE0
3FFFFFE0
1FFFFFC0
0FFFFFC0
0FFFFF80
07FFFF80
03FFFF00
00FFFE00
007FFC00
000FE000
ENDCHAR
STARTCHAR F
ENCODING 70
SWIDTH 538 0
DWIDTH 31 0
BBX 27 37 2 0
BITMAP
000FE000
007FF800
00FFFE00
03FFFF00
07FFFF80
0FFFFF80
0FFFFFC0
1FFFFFC0
3FFFFFE0
3FFCFFE0
3FF87FC0
7FF03FC0
7FE01F80
7FC00600
FFFE0000
FFFF0000
FFFF8000
FFFF8000
FFFF8000
FFFF8000
FFFF8000
FFFF0000
FFFE0000
FFC00000
7FC00000
7FC00000
7FC00000
7FE00000
7FE00000
3FF00000
3FF00000
3FF00000
1FF80000
1FF00000
0FF00000
0FE00000
03C00000
ENDCHAR
STARTCHAR G
ENCODING 71
SWIDTH 545 0
DWIDTH 31 0
BBX 27 37 2 0
BITMAP
000FE000
007FF800
00FFFE00
03FFFF00
07FFFF80
0FFFFF80
0FFFFFC0
1FFFFFC0
3FFFFFE0
3FFCFFE0
7FF87FC0
7FF03FC0
7FE03F80
7FC00F00
FFC7E000
FFCFF800
FFDFFE00
FF9FFF00
FF9FFF80
FF9FFF80
FFDFFFC0
FFCFFFC0
FFC7FFE0
7FC0FFE0
7FE07FE0
7FF03FE0
3FF87FE0
3FFEFFE0
3FFFFFE0
1FFFFFC0
0FFFFFC0
0FFFFF80
07FFFF80
03FFFF00
00FFFE00
007FF800
000FE000
ENDCHAR
STARTCHAR H
ENCODING 72
SWIDTH 612 0
DWIDTH 35 0
BBX 31 37 2 0
BITMAP
03C00780
0FE01FC0
0FF01FE0
1FF03FF0
1FF83FF0
3FF03FF8
3FF01FF8
3FF01FF8
7FE00FF8
7FE00FFC
7FE00FFC
7FC007FC
7FC007FC
FFC007FC
FFC7FFFE
FFCFFFFE
FF9FFFFE
FF9FFFFE
FF9FFFFE
FF9FFFFE
FF9FFFFE
FFCFFFFE
FFC7FFFE
FFC007FE
7FC007FC
7FC007FC
7FC00FFC
7FE00FFC
7FE00FFC
3FF01FF8
3FF01FF8
3FF03FF8
1FF83FF0
1FF03FF0
0FF01FE0
0FE00FC0
03C00780
ENDCHAR
STARTCHAR I
ENCODING 73
SWIDTH 291 0
DWIDTH 17 0
BBX 13 37 2 0
BITMAP
03C0
0FE0
0FF0
1FF0
1FF8
3FF0
3FF0
3FF0
7FE0
7FE0
7FE0
7FC0
7FC0
FFC0
FFC0
FFC0
FF80
FF80
FF80
FF80
FF80
FFC0
FFC0
FFC0
7FC0
7FC0
7FC0
7FE0
7FE0
3FF0
3FF0
3FF0
1FF8
1FF0
0FF0
0FE0
03C0
ENDCHAR
STARTCHAR J
ENCODING 74
SWIDTH 539 0
DWIDTH 31 0
BBX 27 37 2 0
BITMAP
00FE0000
03FF8000
0FFFE000
1FFFF000
3FFFF800
7FFFFC00
7FFFFE00
FFFFFF00
FFFFFF00
FFEFFF80
FF83FF80
7F81FFC0
3F00FFC0
1C00FFC0
00007FC0
00007FC0
00007FE0
00007FE0
00007FE0
00007FE0
00007FE0
3E007FC0
7F007FC0
FF80FFC0
FF80FFC0
FF81FFC0
FF83FF80
FFEFFF80
FFFFFF00
FFFFFF00
7FFFFE00
7FFFFC00
3FFFF800
1FFFF000
0FFFE000
03FF8000
00FE0000
ENDCHAR
STARTCHAR K
ENCODING 75
SWIDTH 610 0
DWIDTH 35 0
BBX 31 37 2 0
BITMAP
03C007C0
0FE00FE0
0FF01FF0
1FF01FF0
1FF81FF8
3FF01FF8
3FF01FF8
3FF00FFC
7FE00FFC
7FE007FC
7FE007FC
7FC007FE
7FC007FE
FFC007FE
FFC7FFFE
FFCFFFFC
FF9FFFFC
FF9FFFFC
FF9FFFF8
FF9FFFFC
FF9FFFFC
FFCFFFFC
FFC7FFFE
FFC007FE
7FC007FE
7FC007FE
7FC007FE
7FE00FFC
7FE00FFC
3FF00FFC
3FF01FF8
3FF01FF8
1FF81FF8
1FF01FF0
0FF01FF0
0FE00FE0
03C00780
ENDCHAR
STARTCHAR L
ENCODING 76
SWIDTH 538 0
DWIDTH 31 0
BBX 27 37 2 0
BITMAP
03C00000
0FE00000
0FF00000
1FF00000
1FF80000
3FF00000
3FF00000
3FF00000
7FE00000
7FE00000
7FE00000
7FC00000
7FC00000
FFC00000
FFC00000
FFC00000
FF800000
FF800000
FF800000
FF800000
FFC00000
FFC00000
FFC00000
7FC00600
7FE01F80
7FF03FC0
3FF07FC0
3FFCFFE0
3FFFFFE0
1FFFFFC0
0FFFFFC0
0FFFFF80
07FFFF80
03FFFF00
00FFFE00
007FF800
000FE000
ENDCHAR
STARTCHAR M
ENCODING 77
SWIDTH 722 0
DWIDTH 41 0
BBX 37 37 2 0
BITMAP
03C0001E00
0FE0003F80
0FF0007F80
1FF0007FC0
1FF8007FC0
3FF800FFE0
3FF800FFE0
3FF800FFE0
7FFC01FFF0
7FFC01FFF0
7FFE03FFF0
7FFF07FFF0
7FFF8FFFF8
FFFFFFFFF8
FFFFFFFFF8
FFFFFFFFF8
FFFFFFFFF8
FFBFFFFFF8
FF9FFFEFF8
FF8FFF8FF8
FF87FF0FF8
FFC3FE0FF8
FFC0F81FF8
FFC0001FF8
7FC0001FF8
7FC0001FF8
7FC0001FF0
7FE0003FF0
7FE0003FF0
3FF0003FF0
3FF0007FE0
3FF0007FE0
1FF8007FC0
1FF0007FC0
0FF0007F80
0FE0003F80
03C0001E00
ENDCHAR
STARTCHAR N
ENCODING 78
SWIDTH 611 0
DWIDTH 35 0
BBX 31 37 2 0
BITMAP
03C00780
0FE01FC0
0FF01FE0
1FF03FF0
1FF83FF0
3FF83FF0
3FF81FF8
3FF81FF8
7FF80FF8
7FFC0FFC
7FFC0FFC
7FFE07FC
7FFF07FC
FFFF87FC
FFFFC7FE
FFFFE7FE
FFFFF7FE
FFFFFFFE
FFFFFFFE
FFBFFFFE
FF9FFFFE
FFCFFFFE
FFC7FFFE
FFC3FFFC
7FC1FFFC
7FC0FFFC
7FC0FFFC
7FE07FFC
7FE03FFC
3FF03FF8
3FF03FF8
3FF03FF8
1FF83FF0
1FF03FF0
0FF01FE0
0FE00FC0
03C00780
ENDCHAR
STARTCHAR O
ENCODING 79
SWIDTH 729 0
DWIDTH 42 0
BBX 38 37 2 0
BITMAP
0001FE0000
001FFFC000
007FFFF000
00FFFFFC00
01FFFFFE00
07FFFFFF00
07FFFFFF80
0FFFFFFFC0
1FFFFFFFE0
3FFF87FFE0
3FFC01FFF0
7FF8007FF0
7FF0003FF8
7FE0001FF8
7FC0001FF8
FFC0000FF8
FFC0000FF8
FF80000FF8
FF80000FFC
FF80000FF8
FFC0000FF8
FFC0000FF8
7FC0001FF8
7FE0001FF8
7FF0003FF0
7FF8007FF0
3FFC01FFF0
3FFF87FFE0
1FFFFFFFE0
0FFFFFFFC0
07FFFFFF80
07FFFFFF00
01FFFFFE00
00FFFFFC00
007FFFF000
001FFFE000
0003FE0000
ENDCHAR
STARTCHAR P
ENCODING 80
SWIDTH 546 0
DWIDTH 31 0
BBX 27 37 2 0
BITMAP
000FE000
007FF800
00FFFE00
03FFFF00
07FFFF80
0FFFFF80
0FFFFFC0
1FFFFFC0
3FFFFFE0
3FFCFFE0
3FF07FE0
7FF03FE0
7FE07FE0
7FC0FFE0
FFC7FFE0
FFCFFFC0
FFDFFFC0
FF9FFF80
FF9FFF80
FF9FFF00
FF9FFE00
FFCFF800
FFC7E000
FFC00000
7FC00000
7FC00000
7FC00000
7FE00000
7FE00000
3FF00000
3FF00000
3FF00000
1FF80000
1FF00000
0FF00000
0FE00000
03C00000
ENDCHAR
STARTCHAR Q
ENCODING 81
SWIDTH 612 0
DWIDTH 35 0
BBX 31 37 2 0
BITMAP
000FE000
007FFC00
00FFFE00
03FFFF00
07FFFF80
07FFFFC0
0FFFFFE0
1FFFFFF0
3FFFFFF0
3FFC7FF8
7FF83FF8
7FF01FFC
7FE00FFC
FFC00FFC
FFC7C7FC
FFDFE7FE
FFDFF7FE
FF9FF7FE
FF9FFFFE
FF9FFFFE
FFDFFFFE
FFCFFFFE
FFC7FFFC
7FC7FFFC
7FE3FFFC
7FE1FFFC
3FF0FFF8
3FF8FFF8
3FFE7FF0
1FFF3FF0
0FFF9FE0
0FFF8FC0
07FF8780
03FF8000
01FF8000
007F0000
003C0000
ENDCHAR
STARTCHAR R
ENCODING 82
SWIDTH 545 0
DWIDTH 31 0
BBX 27 37 2 0
BITMAP
000FE000
007FF800
00FFFE00
03FFFF00
07FFFF80
0FFFFF80
0FFFFFC0
1FFFFFC0
3FFFFFE0
3FFCFFE0
3FF07FE0
7FF03FE0
7FE07FE0
7FC0FFE0
FFC7FFE0
FFCFFFC0
FFDFFFC0
FF9FFF80
FF9FFFC0
FF9FFFC0
FF9FFFE0
FFCFFFE0
FFC7FFE0
FFC03FE0
7FC03FE0
7FC07FE0
7FC07FE0
7FE07FC0
7FE0FFC0
3FF0FFC0
3FF1FFC0
3FF1FF80
1FF9FF80
1FF1FF00
0FF1FF00
0FE0FE00
03C03C00
ENDCHAR
STARTCHAR S
ENCODING 83
SWIDTH 612 0
DWIDTH 35 0
BBX 31 37 2 0
BITMAP
001FF000
00FFFF00
03FFFFC0
0FFFFFF0
1FFFFFF8
3FFFFFFC
3FFFFFFC
7FFFFFFE
7FFFFFFE
FFF83FFE
FFE007FC
FF8001F8
FFC00060
FFF00000
FFFFF800
7FFFFF00
7FFFFFC0
3FFFFFE0
1FFFFFF0
0FFFFFF8
07FFFFF8
01FFFFFC
007FFFFC
00007FFE
00000FFE
3F0007FE
7F800FFE
FFF87FFE
FFFFFFFC
FFFFFFFC
FFFFFFF8
7FFFFFF8
3FFFFFF0
1FFFFFE0
07FFFF80
01FFFE00
003FF000
ENDCHAR
STARTCHAR T
ENCODING 84
SWIDTH 603 0
DWIDTH 34 0
BBX 30 37 2 0
BITMAP
001FE000
00FFFE00
03FFFF80
0FFFFFC0
1FFFFFE0
3FFFFFF0
7FFFFFF8
FFFFFFFC
FFFFFFFC
FFFFFFFC
FFDFFFFC
7F9FF7FC
3F1FF3F8
1C1FF0E0
001FF000
001FF000
001FF000
001FF000
001FF000
001FF000
001FF000
001FF000
001FF000
001FF000
001FF000
001FF000
001FF000
001FF000
001FF000
001FF000
001FF000
001FF000
001FF000
001FF000
001FE000
000FE000
00078000
ENDCHAR
STARTCHAR U
ENCODING 85
SWIDTH 612 0
DWIDTH 35 0
BBX 31 37 2 0
BITMAP
03C00780
0FE01FC0
0FF01FE0
1FF03FF0
1FF83FF0
3FF03FF0
3FF01FF8
3FF01FF8
7FE00FF8
7FE00FFC
7FC00FFC
7FC007FC
7FC007FC
FFC007FC
FFC007FE
FFC007FE
FF8007FE
FF8007FE
FF8007FE
FF8007FE
FFC007FE
FFC007FE
FFC007FC
7FC00FFC
7FE00FFC
7FF01FFC
3FF83FF8
3FFC7FF8
3FFFFFF0
1FFFFFF0
0FFFFFE0
0FFFFFC0
07FFFFC0
03FFFF80
01FFFE00
007FFC00
000FE000
ENDCHAR
STARTCHAR V
ENCODING 86
SWIDTH 612 0
DWIDTH 35 0
BBX 31 37 2 0
BITMAP
1E0000F0
7F0001FC
7F8003FC
FF8003FE
FF8007FE
FF8007FE
FF8007FE
FF8007FE
FF8007FE
FFC007FE
FFC007FE
FFC007FE
FFC007FC
7FC007FC
7FC007FC
7FC007FC
7FC00FFC
7FE00FFC
7FE00FF8
3FE00FF8
3FF01FF8
3FF01FF8
3FF01FF8
1FF83FF0
1FF83FF0
1FF87FF0
0FFC7FE0
0FFEFFE0
07FFFFC0
07FFFFC0
03FFFF80
03FFFF00
01FFFF00
00FFFE00
007FFC00
003FF800
000FC000
ENDCHAR
STARTCHAR W
ENCODING 87
SWIDTH 722 0
DWIDTH 41 0
BBX 37 37 2 0
BITMAP
03C0001E00
0FE0003F80
0FF0007F80
1FF0007FC0
1FF8007FC0
3FF0007FE0
3FF0007FE0
3FF0003FE0
7FE0003FF0
7FE0003FF0
7FE0001FF0
7FC0001FF0
7FC0001FF8
FFC0001FF8
FFC0F81FF8
FFC1FE0FF8
FF87FF0FF8
FF8FFF8FF8
FF9FFFCFF8
FFBFFFEFF8
FFFFFFFFF8
FFFFFFFFF8
FFFFFFFFF8
FFFFFFFFF8
7FFFDFFFF8
7FFF8FFFF8
7FFF03FFF0
7FFE03FFF0
7FFC01FFF0
3FF800FFF0
3FF800FFE0
3FF800FFE0
1FF8007FC0
1FF0007FC0
0FF0007F80
0FE0003F80
03C0001E00
ENDCHAR
STARTCHAR X
ENCODING 88
SWIDTH 605 0
DWIDTH 35 0
BBX 30 37 2 0
BITMAP
07C00780
0FE00FC0
1FF01FE0
1FF03FF0
3FF03FF0
3FF03FF8
3FF01FF8
7FE01FF8
7FE00FFC
7FC00FFC
FFC00FFC
FFC00FFC
FFC00FFC
FFE01FFC
FFF03FFC
FFFFFFFC
7FFFFFFC
7FFFFFF8
7FFFFFF8
7FFFFFFC
FFFFFFFC
FFF83FFC
FFE01FFC
FFC00FFC
FFC00FFC
FFC00FFC
7FC00FFC
7FE00FFC
7FE00FF8
7FE01FF8
3FF01FF8
3FF03FF0
3FF03FF0
1FF01FF0
1FF01FE0
0FE00FC0
07C00780
ENDCHAR
STARTCHAR Y
ENCODING 89
SWIDTH 605 0
DWIDTH 35 0
BBX 30 37 2 0
BITMAP
07C00780
0FE01FE0
1FF01FE0
1FF03FF0
3FF03FF0
3FF03FF8
3FF01FF8
7FE01FF8
7FE00FFC
7FC00FFC
FFC007FC
FFC007FC
FFC007FC
FFE01FFC
FFFFFFFC
FFFFFFFC
7FFFFFFC
7FFFFFF8
3FFFFFF8
1FFFFFF0
0FFFFFE0
03FFFF80
00FFFE00
001FF000
001FF000
001FF000
001FF000
001FF000
001FF000
001FF000
001FF000
001FF000
001FF000
001FF000
001FE000
000FE000
00078000
ENDCHAR
STARTCHAR Z
ENCODING 90
SWIDTH 612 0
DWIDTH 35 0
BBX 31 37 2 0
BITMAP
003FFFF0
01FFFFF8
07FFFFFC
1FFFFFFE
3FFFFFFE
7FFFFFFE
FFFFFFFC
FFFFFFFC
FFFFFFF8
FFF87FF0
7F80FFF0
7F01FFE0
1C03FFC0
0003FF80
0007FF80
000FFF00
001FFE00
001FFC00
003FF800
007FF800
00FFF000
00FFE000
01FFC000
03FFC000
07FF8070
0FFF01F8
0FFE07FC
1FFE3FFE
3FFFFFFE
7FFFFFFE
7FFFFFFE
7FFFFFFC
FFFFFFF8
7FFFFFF0
7FFFFFC0
3FFFFF00
1FFFF000
ENDCHAR
STARTCHAR bracketleft
ENCODING 91
SWIDTH 326 0
DWIDTH 19 0
BBX 15 44 2 -3
BITMAP
1FF0
7FF8
7FFC
FFFC
FFFE
FFFC
FFFC
FFFC
FFF8
FF80
FF80
FF80
FF80
FF80
FF80
FF80
FF80
FF80
FF80
FF80
FF80
FF80
FF80
FF80
FF80
FF80
FF80
FF80
FF80
FF80
FF80
FF80
FF80
FF80
FF80
FFF0
FFFC
FFFC
FFFC
FFFE
FFFC
7FFC
7FF8
1FF0
ENDCHAR
STARTCHAR backslash
ENCODING 92
SWIDTH 605 0
DWIDTH 35 0
BBX 30 37 2 0
BITMAP
1E000000
7F000000
7F800000
FFC00000
FFC00000
FFE00000
FFF00000
7FF80000
3FF80000
3FFC0000
1FFE0000
0FFF0000
07FF8000
03FF8000
03FFC000
01FFE000
00FFF000
007FF000
007FF800
003FFC00
001FFE00
000FFE00
000FFF00
0007FF80
0003FFC0
0001FFC0
0001FFE0
0000FFF0
00007FF8
00003FF8
00001FFC
00001FFC
00000FFC
000007FC
000003FC
000003F8
000000F0
ENDCHAR
STARTCHAR bracketright
ENCODING 93
SWIDTH 326 0
DWIDTH 19 0
BBX 15 44 2 -3
BITMAP
1FF0
7FF8
7FFC
FFFC
FFFC
FFFE
FFFE
7FFE
3FFE
07FE
07FE
07FE
07FE
07FE
07FE
07FE
07FE
07FE
07FE
07FE
07FE
07FE
07FE
07FE
07FE
07FE
07FE
07FE
07FE
07FE
07FE
07FE
07FE
07FE
07FE
3FFE
7FFE
FFFE
FFFE
FFFE
FFFC
7FFC
7FF8
1FF0
ENDCHAR
STARTCHAR asciicircum
ENCODING 94
SWIDTH 332 0
DWIDTH 19 0
BBX 15 12 2 25
BITMAP
07C0
0FE0
1FF0
3FF8
7FFC
FFFE
FFFE
FFFE
FFFE
7FFC
7FFC
1EF0
ENDCHAR
STARTCHAR underscore
ENCODING 95
SWIDTH 723 0
DWIDTH 41 0
BBX 37 9 2 -11
BITMAP
3FFFFFFFE0
7FFFFFFFF0
FFFFFFFFF8
FFFFFFFFF8
FFFFFFFFF8
FFFFFFFFF8
7FFFFFFFF8
7FFFFFFFF0
1FFFFFFFE0
ENDCHAR
STARTCHAR grave
ENCODING 96
SWIDTH 284 0
DWIDTH 16 0
BBX 12 12 2 25
BITMAP
1E00
7F00
7F80
FFC0
FFE0
FFF0
FFF0
7FF0
3FF0
1FF0
0FE0
07C0
ENDCHAR
STARTCHAR a
ENCODING 97
SWIDTH 588 0
DWIDTH 34 0
BBX 29 28 2 0
BITMAP
003FC000
01FFF000
03FFFC00
0FFFFE00
0FFFFF00
1FFFFF80
3FFFFFC0
7FFFFFC0
7FFFFFE0
7FF9FFF0
FFE07FF0
FFC03FF0
FFC01FF8
FF801FF8
FF800FF8
FFC00FF8
FFC00FF8
7FE00FF8
7FF80FF8
7FFF8FF8
3FFFCFF8
3FFFCFF8
1FFFEFF8
0FFFEFF8
07FFEFF8
03FFCFF8
00FFC7F0
003F03E0
ENDCHAR
STARTCHAR b
ENCODING 98
SWIDTH 588 0
DWIDTH 34 0
BBX 29 37 2 0
BITMAP
03C00000
0FE00000
0FF00000
1FF00000
1FF80000
3FF00000
3FF00000
3FF00000
7FE00000
7FE7E000
7FCFFC00
7FDFFE00
7FDFFF80
FFDFFFC0
FFDFFFE0
FFDFFFE0
FF8FFFF0
FF87FFF0
FF80FFF8
FF801FF8
FFC01FF8
FFC00FF8
FFC00FF8
7FC00FF8
7FE00FF8
7FF01FF8
3FF01FF8
3FFCFFF8
3FFFFFF8
1FFFFFF0
0FFFFFF0
0FFFFFE0
07FFFFC0
03FFFF80
00FFFF00
007FFC00
000FF000
ENDCHAR
STARTCHAR c
ENCODING 99
SWIDTH 517 0
DWIDTH 29 0
BBX 25 28 2 0
BITMAP
003FC000
00FFF000
03FFFC00
07FFFE00
0FFFFF00
1FFFFF80
3FFFFF80
3FFFFF80
7FFFFF80
7FF9FF80
7FE07F00
FFC01E00
FFC00000
FF800000
FF800000
FFC00000
FFC01E00
7FE07F00
7FF9FF80
7FFFFF80
3FFFFF80
3FFFFF80
1FFFFF80
0FFFFF00
07FFFE00
03FFFC00
00FFF000
003FC000
ENDCHAR
STARTCHAR d
ENCODING 100
SWIDTH 588 0
DWIDTH 34 0
BBX 29 37 2 0
BITMAP
00000F00
00003F80
00007FC0
00007FC0
00007FE0
00007FE0
00007FF0
00003FF0
00003FF0
003F1FF0
00FFDFF8
03FFDFF8
07FFEFF8
0FFFEFF8
1FFFEFF8
3FFFCFF8
3FFFCFF8
7FFF8FF8
7FF80FF8
7FE00FF8
FFC00FF8
FFC00FF8
FF800FF8
FF801FF8
FFC01FF8
FFC03FF0
FFE07FF0
7FF9FFF0
7FFFFFE0
3FFFFFE0
3FFFFFC0
1FFFFF80
0FFFFF00
0FFFFE00
03FFFC00
01FFF000
003FC000
ENDCHAR
STARTCHAR e
ENCODING 101
SWIDTH 542 0
DWIDTH 31 0
BBX 27 28 2 0
BITMAP
003FC000
00FFF000
03FFFC00
07FFFE00
0FFFFF00
1FFFFF80
3FFFFFC0
3FFFFFC0
7FFFFFE0
7FF9FFE0
7FE3FFE0
FFC7FFC0
FFFFFFC0
FFFFFF80
FFFFFF00
FFFFFE00
FFFFFE00
7FFFFF00
7FFFFF80
7FFFFF80
3FFFFF80
3FFFFF80
1FFFFF80
0FFFFF00
07FFFE00
03FFFC00
00FFF000
003FC000
ENDCHAR
STARTCHAR f
ENCODING 102
SWIDTH 583 0
DWIDTH 33 0
BBX 29 37 2 0
BITMAP
000FF000
007FFC00
00FFFF00
03FFFF80
07FFFFC0
0FFFFFE0
0FFFFFE0
1FFFFFF0
3FFFFFF0
3FFC7FF8
3FF81FF8
7FF01FF8
7FE00FF8
7FE00FF8
FFE007F0
FFE003E0
FFE00000
FFF00000
FFFC0000
FFFFC000
FFFFE000
FFFFF000
FFFFF000
FFFFF000
7FFFF000
7FFFF000
7FFFE000
7FEFC000
7FE00000
3FF00000
3FF00000
3FF00000
1FF80000
1FF00000
0FF00000
0FE00000
03C00000
ENDCHAR
STARTCHAR g
ENCODING 103
SWIDTH 588 0
DWIDTH 34 0
BBX 29 37 2 -9
BITMAP
003FC000
00FFF000
03FFFC00
07FFFE00
0FFFFF00
1FFFFF80
3FFFFFC0
3FFFFFC0
7FFFFFE0
7FF9FFF0
7FE07FF0
FFC03FF0
FFC01FF8
FF801FF8
FF801FF8
FFC00FF8
FFC00FF8
FFE00FF8
7FF00FF8
7FFF0FF8
3FFFCFF8
3FFFCFF8
1FFFEFF8
0FFFFFF8
07FFFFF8
03FFFFF0
01FFFFF0
007FFFF0
000FFFE0
001FFFC0
003FFFC0
003FFF80
007FFF00
003FFE00
003FFC00
001FF000
000FC000
ENDCHAR
STARTCHAR h
ENCODING 104
SWIDTH 572 0
DWIDTH 33 0
BBX 29 37 2 0
BITMAP
03C00000
0FE00000
0FF00000
1FF00000
1FF80000
3FF00000
3FF00000
3FF00000
7FE00000
7FFFC000
7FFFF800
7FFFFE00
7FFFFF00
FFFFFF80
FFFFFFC0
FFFFFFC0
FFFFFFE0
FFFFFFE0
FFFDFFF0
FFE03FF0
FFE03FF0
FFC01FF0
FFC01FF0
FFC01FF8
7FC01FF0
7FC01FF0
7FC01FF0
7FE03FF0
7FE03FF0
7FF07FF0
3FF07FE0
3FF07FE0
1FF8FFC0
1FF07FC0
0FF07F80
0FE03F80
03C01E00
ENDCHAR
STARTCHAR i
ENCODING 105
SWIDTH 337 0
DWIDTH 19 0
BBX 15 37 2 0
BITMAP
00F8
01FC
03FE
03FE
03FE
03FE
03FE
01FC
00F8
0780
1FC0
1FE0
3FE0
3FF0
7FE0
7FE0
7FE0
7FC0
FFC0
FFC0
FFC0
FF80
FF80
FF80
FF80
FFC0
FFC0
FFC0
7FC0
7FE0
7FE0
7FE0
3FF0
3FE0
1FE0
1FC0
0780
ENDCHAR
STARTCHAR j
ENCODING 106
SWIDTH 424 0
DWIDTH 24 0
BBX 20 46 2 -9
BITMAP
01E000
03F800
07F800
07FC00
0FFC00
0FFC00
07F800
07F800
03F000
003C00
007F00
00FF00
00FF80
00FF80
00FFC0
00FFC0
007FC0
007FE0
007FE0
003FE0
003FE0
003FF0
003FF0
001FF0
001FF0
001FF0
001FF0
001FF0
001FF0
001FF0
003FF0
003FF0
003FF0
007FE0
007FE0
00FFE0
03FFC0
3FFFC0
7FFF80
FFFF80
FFFF00
FFFE00
FFFC00
7FF800
7FE000
1F0000
ENDCHAR
STARTCHAR k
ENCODING 107
SWIDTH 572 0
DWIDTH 33 0
BBX 29 37 2 0
BITMAP
03C00000
0FE00000
0FF00000
1FF00000
1FF80000
3FF00000
3FF00000
3FF00000
7FE00000
7FE01E00
7FC03F80
7FC07FC0
7FC07FE0
FFC0FFE0
FFC07FF0
FFC07FF0
FF803FF0
FF803FF0
FF87FFF8
FF8FFFF0
FF9FFFF0
FFDFFFF0
FFDFFFE0
FFDFFFE0
7FDFFFF0
7FCFFFF0
7FC7FFF0
7FE03FF8
7FE03FF0
3FF07FF0
3FF07FF0
3FF0FFF0
1FF8FFE0
1FF07FC0
0FF07FC0
0FE03F80
03C01E00
ENDCHAR
STARTCHAR l
ENCODING 108
SWIDTH 291 0
DWIDTH 17 0
BBX 13 37 2 0
BITMAP
03C0
0FE0
0FF0
1FF0
1FF8
3FF0
3FF0
3FF0
7FE0
7FE0
7FC0
7FC0
7FC0
FFC0
FFC0
FFC0
FF80
FF80
FF80
FF80
FF80
FFC0
FFC0
FFC0
7FC0
7FC0
7FC0
7FE0
7FE0
3FF0
3FF0
3FF0
1FF8
1FF0
0FF0
0FE0
03C0
ENDCHAR
STARTCHAR m
ENCODING 109
SWIDTH 893 0
DWIDTH 51 0
BBX 47 28 2 0
BITMAP
003FC007FC00
00FFF01FFF00
03FFFC7FFF80
07FFFEFFFFC0
0FFFFFFFFFE0
1FFFFFFFFFF0
3FFFFFFFFFF8
3FFFFFFFFFF8
7FFFFFFFFFFC
7FF9FFFF3FFC
7FE07FFC0FFC
FFC03FF807FE
FFC01FF007FE
FF801FF007FE
FF801FF007FE
FF801FF007FE
FFC01FE007FE
FFC00FE007FE
7FC0010007FC
7FE000000FFC
7FE000000FFC
7FF000001FFC
3FF000001FF8
3FF000001FF8
1FF000001FF0
1FF000001FF0
0FE000000FE0
07C0000007C0
ENDCHAR
STARTCHAR n
ENCODING 110
SWIDTH 565 0
DWIDTH 32 0
BBX 28 28 2 0
BITMAP
003FC000
00FFF000
03FFFC00
07FFFE00
0FFFFF00
1FFFFF80
3FFFFFC0
3FFFFFC0
7FFFFFE0
7FF9FFE0
7FE07FF0
FFC03FF0
FFC01FF0
FF801FF0
FF801FF0
FF801FF0
FFC01FF0
FFC03FF0
7FC03FF0
7FE03FE0
7FE07FE0
7FF0FFE0
3FF0FFC0
3FF0FFC0
1FF0FF80
1FF07F80
0FE07F00
07C01E00
ENDCHAR
STARTCHAR o
ENCODING 111
SWIDTH 564 0
DWIDTH 32 0
BBX 28 28 2 0
BITMAP
001FC000
00FFF000
03FFFC00
07FFFE00
0FFFFF00
1FFFFF80
3FFFFFC0
3FFFFFE0
7FFFFFE0
7FF9FFE0
7FE07FF0
FFC03FF0
FFC01FF0
FF801FF0
FF801FF0
FFC01FF0
FFC03FF0
7FE07FF0
7FF9FFE0
7FFFFFE0
3FFFFFE0
3FFFFFC0
1FFFFF80
0FFFFF00
07FFFE00
03FFFC00
00FFF800
003FC000
ENDCHAR
STARTCHAR p
ENCODING 112
SWIDTH 588 0
DWIDTH 34 0
BBX 29 37 2 -9
BITMAP
000FF000
007FFC00
00FFFE00
03FFFF80
07FFFFC0
0FFFFFE0
0FFFFFE0
1FFFFFF0
3FFFFFF0
3FFE7FF8
3FF81FF8
7FF00FF8
7FE00FF8
7FC00FF8
FFC00FF8
FFC00FF8
FFC01FF8
FF801FF8
FF80FFF8
FF87FFF0
FF8FFFF0
FFDFFFE0
FFDFFFE0
FFDFFFC0
7FDFFF80
7FDFFE00
7FCFFC00
7FE7E000
7FE00000
3FF00000
3FF00000
3FF00000
1FF80000
1FF00000
0FF00000
0FE00000
03C00000
ENDCHAR
STARTCHAR q
ENCODING 113
SWIDTH 588 0
DWIDTH 34 0
BBX 29 37 2 -9
BITMAP
003FC000
00FFF000
03FFFC00
07FFFE00
0FFFFF00
1FFFFF80
3FFFFFC0
3FFFFFC0
7FFFFFE0
7FF9FFF0
7FE07FF0
FFC03FF0
FFC01FF8
FF801FF8
FF800FF8
FFC00FF8
FFC00FF8
7FE00FF8
7FF80FF8
7FFF8FF8
3FFFCFF8
3FFFCFF8
1FFFEFF8
0FFFEFF8
07FFEFF8
03FFDFF8
00FFDFF8
003F1FF0
00003FF0
00003FF0
00007FF0
00007FE0
00007FE0
00007FC0
00003FC0
00003F80
00000F00
ENDCHAR
STARTCHAR r
ENCODING 114
SWIDTH 565 0
DWIDTH 32 0
BBX 28 28 2 0
BITMAP
003FC000
00FFF000
03FFFC00
07FFFE00
0FFFFF00
1FFFFF80
3FFFFFC0
3FFFFFC0
7FFFFFE0
7FF9FFE0
7FE07FF0
FFC03FF0
FFC01FF0
FF801FF0
FF801FF0
FF801FF0
FFC00FE0
FFC00FE0
7FC00100
7FE00000
7FE00000
7FF00000
3FF00000
3FF00000
1FF00000
1FF00000
0FE00000
07C00000
ENDCHAR
STARTCHAR s
ENCODING 115
SWIDTH 564 0
DWIDTH 32 0
BBX 28 28 2 0
BITMAP
003FFF80
01FFFFE0
07FFFFE0
0FFFFFF0
1FFFFFF0
3FFFFFF0
7FFFFFF0
7FFFFFE0
7FFFFFE0
7FFE0700
7FFFF800
7FFFFE00
7FFFFF80
3FFFFFC0
1FFFFFC0
0FFFFFE0
07FFFFE0
01FFFFE0
0C0FFFF0
3FFFFFE0
7FFFFFE0
FFFFFFE0
FFFFFFC0
FFFFFFC0
FFFFFF80
7FFFFE00
7FFFFC00
1FFFE000
ENDCHAR
STARTCHAR t
ENCODING 116
SWIDTH 583 0
DWIDTH 33 0
BBX 29 37 2 0
BITMAP
03C00000
0FE00000
0FF00000
1FF00000
1FF80000
3FF00000
3FF00000
3FF00000
7FE00000
7FEF8000
7FFFE000
7FFFF000
7FFFF000
FFFFF000
FFFFF000
FFFFF000
FFFFE000
FFFFC000
FFFC0000
FFF00000
FFE00000
FFE003E0
FFE007F0
7FE00FF8
7FE00FF8
7FE01FF8
3FF01FF8
3FFC7FF8
3FFFFFF0
1FFFFFF0
0FFFFFE0
0FFFFFE0
07FFFFC0
03FFFF80
00FFFF00
007FFC00
000FF000
ENDCHAR
STARTCHAR u
ENCODING 117
SWIDTH 565 0
DWIDTH 32 0
BBX 28 28 2 0
BITMAP
07C01E00
0FE07F00
1FF0FF80
1FF0FF80
3FF0FFC0
3FF0FFC0
7FF0FFE0
7FE07FE0
7FE03FE0
7FC03FF0
FFC03FF0
FFC01FF0
FF801FF0
FF801FF0
FF801FF0
FFC01FF0
FFC03FF0
7FE07FF0
7FF9FFE0
7FFFFFE0
3FFFFFE0
3FFFFFC0
1FFFFF80
0FFFFF00
07FFFE00
03FFFC00
00FFF000
003FC000
ENDCHAR
STARTCHAR v
ENCODING 118
SWIDTH 565 0
DWIDTH 32 0
BBX 28 28 2 0
BITMAP
1E0007C0
7F000FE0
7F801FF0
FF801FF0
FF801FF0
FF801FF0
FF801FF0
FFC01FF0
FFC01FF0
FFC03FF0
7FC03FF0
7FC03FF0
7FC03FE0
7FE07FE0
7FE07FE0
3FE07FE0
3FF0FFC0
3FF8FFC0
1FFDFFC0
1FFFFF80
0FFFFF80
0FFFFF00
07FFFE00
03FFFE00
03FFFC00
00FFF800
007FE000
001F8000
ENDCHAR
STARTCHAR w
ENCODING 119
SWIDTH 893 0
DWIDTH 51 0
BBX 47 28 2 0
BITMAP
07C0000007C0
0FE000000FE0
1FF000001FF0
1FF000001FF0
3FF000001FF8
3FF000001FF8
7FF000001FFC
7FE000000FFC
7FE000000FFC
7FC0010007FC
FFC00FE007FE
FFC00FE007FE
FF801FF007FE
FF801FF007FE
FF801FF007FE
FFC01FF007FE
FFC03FF807FE
7FE07FFC0FFC
7FF9FFFF3FFC
7FFFFFFFFFFC
3FFFFFFFFFF8
3FFFFFFFFFF8
1FFFFFFFFFF0
0FFFFFFFFFE0
07FFFFFFFFC0
03FFFC7FFF80
01FFF03FFE00
007FC007F800
ENDCHAR
STARTCHAR x
ENCODING 120
SWIDTH 565 0
DWIDTH 32 0
BBX 28 28 2 0
BITMAP
07C01E00
0FE07F00
1FF07F80
3FF0FFC0
7FF0FFE0
7FF0FFE0
7FF0FFF0
FFE07FF0
FFC03FF0
FFF0FFF0
FFFFFFF0
FFFFFFF0
7FFFFFF0
7FFFFFE0
3FFFFFE0
7FFFFFE0
7FFFFFF0
FFFFFFF0
FFFFFFF0
FFE03FF0
FFE07FF0
FFE07FF0
7FF0FFE0
7FF0FFE0
3FF0FFC0
1FF0FF80
0FE07F00
07C03E00
ENDCHAR
STARTCHAR y
ENCODING 121
SWIDTH 572 0
DWIDTH 33 0
BBX 29 37 2 -9
BITMAP
07C01E00
0FE07F00
1FF07F80
1FF0FF80
3FF0FFC0
3FF0FFC0
7FF0FFE0
7FE07FE0
7FE07FF0
7FC03FF0
FFC03FF0
FFC03FF0
FF801FF0
FF801FF0
FF801FF0
FFC03FF8
FFC03FF8
7FE07FF8
7FF9FFF0
7FFFFFF0
3FFFFFF0
3FFFFFF0
1FFFFFF0
0FFFFFF0
07FFFFE0
03FFFFE0
00FFFFE0
003FFFC0
001FFFC0
007FFF80
007FFF80
007FFF00
00FFFE00
007FFC00
007FF800
003FF000
001F8000
ENDCHAR
STARTCHAR z
ENCODING 122
SWIDTH 611 0
DWIDTH 35 0
BBX 31 28 2 0
BITMAP
007FFFF0
07FFFFFC
1FFFFFFC
3FFFFFFE
7FFFFFFE
FFFFFFFE
FFFFFFFE
FFFFFFFC
FFFFFFF8
7FF3FFF0
3F07FFC0
080FFF80
003FFF00
007FFE00
00FFFC00
01FFF800
03FFF020
07FFE1F8
0FFF9FFC
1FFFFFFC
3FFFFFFE
7FFFFFFE
7FFFFFFE
FFFFFFFC
7FFFFFF8
7FFFFFF0
3FFFFFC0
1FFFFC00
ENDCHAR
STARTCHAR braceleft
ENCODING 123
SWIDTH 369 0
DWIDTH 21 0
BBX 17 48 2 -5
BITMAP
00FC00
03FF00
07FF00
07FF80
07FF80
0FFF80
0FFF80
0FFF00
0FFE00
0FFC00
07FC00
07FC00
07FC00
07FC00
07FC00
0FFC00
0FFC00
0FFC00
1FF800
3FF800
3FF800
7FF000
FFF000
FFE000
FFE000
FFF000
7FF000
3FF800
1FF800
1FF800
0FFC00
0FFC00
0FFC00
0FFC00
07FC00
07FC00
07FC00
0FFC00
0FFC00
0FFE00
0FFF00
0FFF80
0FFF80
07FF80
07FF80
07FF00
03FF00
00FC00
ENDCHAR
STARTCHAR bar
ENCODING 124
SWIDTH 236 0
DWIDTH 14 0
BBX 9 47 2 -5
BITMAP
1E00
7F00
7F80
FF80
FF80
FF80
FF80
FF80
FF80
FF80
FF80
FF80
FF80
FF80
FF80
FF80
FF80
FF80
FF80
FF80
FF80
FF80
FF80
FF80
FF80
FF80
FF80
FF80
FF80
FF80
FF80
FF80
FF80
FF80
FF80
FF80
FF80
FF80
FF80
FF80
FF80
FF80
FF80
FF80
7F80
7F00
1E00
ENDCHAR
STARTCHAR braceright
ENCODING 125
SWIDTH 369 0
DWIDTH 21 0
BBX 17 48 2 -5
BITMAP
1F8000
7FE000
7FF000
FFF000
FFF000
FFF800
FFF800
7FF800
3FF800
1FF800
1FF800
1FF000
1FF000
1FF000
1FF000
1FF800
1FF800
1FF800
0FFC00
0FFE00
0FFE00
07FF00
07FF80
03FF80
03FF80
07FF80
07FF00
0FFE00
0FFE00
0FFC00
1FF800
1FF800
1FF800
1FF800
1FF000
1FF000
1FF000
1FF800
1FF800
3FF800
7FF800
FFF800
FFF800
FFF000
FFF000
7FF000
7FE000
1F8000
ENDCHAR
STARTCHAR asciitilde
ENCODING 126
SWIDTH 701 0
DWIDTH 40 0
BBX 36 12 2 13
BITMAP
07FF800000
1FFFF00780
3FFFFE1FE0
7FFFFFFFE0
FFFFFFFFF0
FFFFFFFFF0
FFFFFFFFF0
FFFFFFFFF0
7FFFFFFFE0
3F03FFFFC0
0C007FFF00
000007FC00
ENDCHAR
STARTCHAR space.dup2
ENCODING 160
SWIDTH 248 0
DWIDTH 14 0
BBX 1 1 0 0
BITMAP
00
ENDCHAR
STARTCHAR exclamdown
ENCODING 161
SWIDTH 328 0
DWIDTH 19 0
BBX 1 1 0 0
BITMAP
00
ENDCHAR
STARTCHAR cent
ENCODING 162
SWIDTH 556 0
DWIDTH 32 0
BBX 1 1 0 0
BITMAP
00
ENDCHAR
STARTCHAR sterling
ENCODING 163
SWIDTH 495 0
DWIDTH 28 0
BBX 1 1 0 0
BITMAP
00
ENDCHAR
STARTCHAR currency
ENCODING 164
SWIDTH 495 0
DWIDTH 28 0
BBX 1 1 0 0
BITMAP
00
ENDCHAR
STARTCHAR yen
ENCODING 165
SWIDTH 616 0
DWIDTH 35 0
BBX 1 1 0 0
BITMAP
00
ENDCHAR
STARTCHAR brokenbar
ENCODING 166
SWIDTH 495 0
DWIDTH 28 0
BBX 1 1 0 0
BITMAP
00
ENDCHAR
STARTCHAR section
ENCODING 167
SWIDTH 495 0
DWIDTH 28 0
BBX 1 1 0 0
BITMAP
00
ENDCHAR
STARTCHAR dieresis
ENCODING 168
SWIDTH 500 0
DWIDTH 29 0
BBX 1 1 0 0
BITMAP
00
ENDCHAR
STARTCHAR copyright
ENCODING 169
SWIDTH 817 0
DWIDTH 47 0
BBX 1 1 0 0
BITMAP
00
ENDCHAR
STARTCHAR ordfeminine
ENCODING 170
SWIDTH 316 0
DWIDTH 18 0
BBX 1 1 0 0
BITMAP
00
ENDCHAR
STARTCHAR guillemotleft
ENCODING 171
SWIDTH 460 0
DWIDTH 26 0
BBX 1 1 0 0
BITMAP
00
ENDCHAR
STARTCHAR logicalnot
ENCODING 172
SWIDTH 495 0
DWIDTH 28 0
BBX 1 1 0 0
BITMAP
00
ENDCHAR
STARTCHAR hyphen.dup3
ENCODING 173
SWIDTH 584 0
DWIDTH 33 0
BBX 29 9 2 14
BITMAP
3FFFFFE0
7FFFFFF0
FFFFFFF8
FFFFFFF8
FFFFFFF8
FFFFFFF8
7FFFFFF8
7FFFFFF0
1FFFFFE0
ENDCHAR
STARTCHAR registered
ENCODING 174
SWIDTH 817 0
DWIDTH 47 0
BBX 1 1 0 0
BITMAP
00
ENDCHAR
STARTCHAR macron
ENCODING 175
SWIDTH 327 0
DWIDTH 19 0
BBX 1 1 0 0
BITMAP
00
ENDCHAR
STARTCHAR degree
ENCODING 176
SWIDTH 329 0
DWIDTH 19 0
BBX 1 1 0 0
BITMAP
00
ENDCHAR
STARTCHAR plusminus
ENCODING 177
SWIDTH 495 0
DWIDTH 28 0
BBX 1 1 0 0
BITMAP
00
ENDCHAR
STARTCHAR uni00B2
ENCODING 178
SWIDTH 495 0
DWIDTH 28 0
BBX 1 1 0 0
BITMAP
00
ENDCHAR
STARTCHAR uni00B3
ENCODING 179
SWIDTH 495 0
DWIDTH 28 0
BBX 1 1 0 0
BITMAP
00
ENDCHAR
STARTCHAR acute
ENCODING 180
SWIDTH 500 0
DWIDTH 29 0
BBX 1 1 0 0
BITMAP
00
ENDCHAR
STARTCHAR mu
ENCODING 181
SWIDTH 576 0
DWIDTH 33 0
BBX 1 1 0 0
BITMAP
00
ENDCHAR
STARTCHAR paragraph
ENCODING 182
SWIDTH 500 0
DWIDTH 29 0
BBX 1 1 0 0
BITMAP
00
ENDCHAR
STARTCHAR periodcentered
ENCODING 183
SWIDTH 248 0
DWIDTH 14 0
BBX 1 1 0 0
BITMAP
00
ENDCHAR
STARTCHAR cedilla
ENCODING 184
SWIDTH 500 0
DWIDTH 29 0
BBX 1 1 0 0
BITMAP
00
ENDCHAR
STARTCHAR uni00B9
ENCODING 185
SWIDTH 495 0
DWIDTH 28 0
BBX 1 1 0 0
BITMAP
00
ENDCHAR
STARTCHAR ordmasculine
ENCODING 186
SWIDTH 350 0
DWIDTH 20 0
BBX 1 1 0 0
BITMAP
00
ENDCHAR
STARTCHAR guillemotright
ENCODING 187
SWIDTH 460 0
DWIDTH 26 0
BBX 1 1 0 0
BITMAP
00
ENDCHAR
STARTCHAR onequarter
ENCODING 188
SWIDTH 833 0
DWIDTH 48 0
BBX 1 1 0 0
BITMAP
00
ENDCHAR
STARTCHAR onehalf
ENCODING 189
SWIDTH 958 0
DWIDTH 55 0
BBX 1 1 0 0
BITMAP
00
ENDCHAR
STARTCHAR threequarters
ENCODING 190
SWIDTH 833 0
DWIDTH 48 0
BBX 1 1 0 0
BITMAP
00
ENDCHAR
STARTCHAR questiondown
ENCODING 191
SWIDTH 365 0
DWIDTH 21 0
BBX 1 1 0 0
BITMAP
00
ENDCHAR
STARTCHAR Agrave
ENCODING 192
SWIDTH 751 0
DWIDTH 43 0
BBX 1 1 0 0
BITMAP
00
ENDCHAR
STARTCHAR Aacute
ENCODING 193
SWIDTH 751 0
DWIDTH 43 0
BBX 1 1 0 0
BITMAP
00
ENDCHAR
STARTCHAR Acircumflex
ENCODING 194
SWIDTH 751 0
DWIDTH 43 0
BBX 1 1 0 0
BITMAP
00
ENDCHAR
STARTCHAR Atilde
ENCODING 195
SWIDTH 751 0
DWIDTH 43 0
BBX 1 1 0 0
BITMAP
00
ENDCHAR
STARTCHAR Adieresis
ENCODING 196
SWIDTH 751 0
DWIDTH 43 0
BBX 1 1 0 0
BITMAP
00
ENDCHAR
STARTCHAR Aring
ENCODING 197
SWIDTH 751 0
DWIDTH 43 0
BBX 1 1 0 0
BITMAP
00
ENDCHAR
STARTCHAR AE
ENCODING 198
SWIDTH 1034 0
DWIDTH 59 0
BBX 1 1 0 0
BITMAP
00
ENDCHAR
STARTCHAR Ccedilla
ENCODING 199
SWIDTH 683 0
DWIDTH 39 0
BBX 1 1 0 0
BITMAP
00
ENDCHAR
STARTCHAR Egrave
ENCODING 200
SWIDTH 562 0
DWIDTH 32 0
BBX 1 1 0 0
BITMAP
00
ENDCHAR
STARTCHAR Eacute
ENCODING 201
SWIDTH 562 0
DWIDTH 32 0
BBX 1 1 0 0
BITMAP
00
ENDCHAR
STARTCHAR Ecircumflex
ENCODING 202
SWIDTH 562 0
DWIDTH 32 0
BBX 1 1 0 0
BITMAP
00
ENDCHAR
STARTCHAR Edieresis
ENCODING 203
SWIDTH 562 0
DWIDTH 32 0
BBX 1 1 0 0
BITMAP
00
ENDCHAR
STARTCHAR Igrave
ENCODING 204
SWIDTH 320 0
DWIDTH 18 0
BBX 1 1 0 0
BITMAP
00
ENDCHAR
STARTCHAR Iacute
ENCODING 205
SWIDTH 320 0
DWIDTH 18 0
BBX 1 1 0 0
BITMAP
00
ENDCHAR
STARTCHAR Icircumflex
ENCODING 206
SWIDTH 320 0
DWIDTH 18 0
BBX 1 1 0 0
BITMAP
00
ENDCHAR
STARTCHAR Idieresis
ENCODING 207
SWIDTH 320 0
DWIDTH 18 0
BBX 1 1 0 0
BITMAP
00
ENDCHAR
STARTCHAR Eth
ENCODING 208
SWIDTH 741 0
DWIDTH 42 0
BBX 1 1 0 0
BITMAP
00
ENDCHAR
STARTCHAR Ntilde
ENCODING 209
SWIDTH 758 0
DWIDTH 43 0
BBX 1 1 0 0
BITMAP
00
ENDCHAR
STARTCHAR Ograve
ENCODING 210
SWIDTH 788 0
DWIDTH 45 0
BBX 1 1 0 0
BITMAP
00
ENDCHAR
STARTCHAR Oacute
ENCODING 211
SWIDTH 788 0
DWIDTH 45 0
BBX 1 1 0 0
BITMAP
00
ENDCHAR
STARTCHAR Ocircumflex
ENCODING 212
SWIDTH 788 0
DWIDTH 45 0
BBX 1 1 0 0
BITMAP
00
ENDCHAR
STARTCHAR Otilde
ENCODING 213
SWIDTH 788 0
DWIDTH 45 0
BBX 1 1 0 0
BITMAP
00
ENDCHAR
STARTCHAR Odieresis
ENCODING 214
SWIDTH 788 0
DWIDTH 45 0
BBX 1 1 0 0
BITMAP
00
ENDCHAR
STARTCHAR multiply
ENCODING 215
SWIDTH 495 0
DWIDTH 28 0
BBX 1 1 0 0
BITMAP
00
ENDCHAR
STARTCHAR Oslash
ENCODING 216
SWIDTH 788 0
DWIDTH 45 0
BBX 1 1 0 0
BITMAP
00
ENDCHAR
STARTCHAR Ugrave
ENCODING 217
SWIDTH 732 0
DWIDTH 42 0
BBX 1 1 0 0
BITMAP
00
ENDCHAR
STARTCHAR Uacute
ENCODING 218
SWIDTH 732 0
DWIDTH 42 0
BBX 1 1 0 0
BITMAP
00
ENDCHAR
STARTCHAR Ucircumflex
ENCODING 219
SWIDTH 732 0
DWIDTH 42 0
BBX 1 1 0 0
BITMAP
00
ENDCHAR
STARTCHAR Udieresis
ENCODING 220
SWIDTH 732 0
DWIDTH 42 0
BBX 1 1 0 0
BITMAP
00
ENDCHAR
STARTCHAR Yacute
ENCODING 221
SWIDTH 602 0
DWIDTH 34 0
BBX 1 1 0 0
BITMAP
00
ENDCHAR
STARTCHAR Thorn
ENCODING 222
SWIDTH 546 0
DWIDTH 31 0
BBX 1 1 0 0
BITMAP
00
ENDCHAR
STARTCHAR germandbls
ENCODING 223
SWIDTH 610 0
DWIDTH 35 0
BBX 1 1 0 0
BITMAP
00
ENDCHAR
STARTCHAR agrave
ENCODING 224
SWIDTH 450 0
DWIDTH 26 0
BBX 1 1 0 0
BITMAP
00
ENDCHAR
STARTCHAR aacute
ENCODING 225
SWIDTH 450 0
DWIDTH 26 0
BBX 1 1 0 0
BITMAP
00
ENDCHAR
STARTCHAR acircumflex
ENCODING 226
SWIDTH 450 0
DWIDTH 26 0
BBX 1 1 0 0
BITMAP
00
ENDCHAR
STARTCHAR atilde
ENCODING 227
SWIDTH 450 0
DWIDTH 26 0
BBX 1 1 0 0
BITMAP
00
ENDCHAR
STARTCHAR adieresis
ENCODING 228
SWIDTH 450 0
DWIDTH 26 0
BBX 1 1 0 0
BITMAP
00
ENDCHAR
STARTCHAR aring
ENCODING 229
SWIDTH 450 0
DWIDTH 26 0
BBX 1 1 0 0
BITMAP
00
ENDCHAR
STARTCHAR ae
ENCODING 230
SWIDTH 709 0
DWIDTH 40 0
BBX 1 1 0 0
BITMAP
00
ENDCHAR
STARTCHAR ccedilla
ENCODING 231
SWIDTH 441 0
DWIDTH 25 0
BBX 1 1 0 0
BITMAP
00
ENDCHAR
STARTCHAR egrave
ENCODING 232
SWIDTH 443 0
DWIDTH 25 0
BBX 1 1 0 0
BITMAP
00
ENDCHAR
STARTCHAR eacute
ENCODING 233
SWIDTH 443 0
DWIDTH 25 0
BBX 1 1 0 0
BITMAP
00
ENDCHAR
STARTCHAR ecircumflex
ENCODING 234
SWIDTH 443 0
DWIDTH 25 0
BBX 1 1 0 0
BITMAP
00
ENDCHAR
STARTCHAR edieresis
ENCODING 235
SWIDTH 443 0
DWIDTH 25 0
BBX 1 1 0 0
BITMAP
00
ENDCHAR
STARTCHAR igrave
ENCODING 236
SWIDTH 250 0
DWIDTH 14 0
BBX 1 1 0 0
BITMAP
00
ENDCHAR
STARTCHAR iacute
ENCODING 237
SWIDTH 250 0
DWIDTH 14 0
BBX 1 1 0 0
BITMAP
00
ENDCHAR
STARTCHAR icircumflex
ENCODING 238
SWIDTH 250 0
DWIDTH 14 0
BBX 1 1 0 0
BITMAP
00
ENDCHAR
STARTCHAR idieresis
ENCODING 239
SWIDTH 250 0
DWIDTH 14 0
BBX 1 1 0 0
BITMAP
00
ENDCHAR
STARTCHAR eth
ENCODING 240
SWIDTH 556 0
DWIDTH 32 0
BBX 1 1 0 0
BITMAP
00
ENDCHAR
STARTCHAR ntilde
ENCODING 241
SWIDTH 541 0
DWIDTH 31 0
BBX 1 1 0 0
BITMAP
00
ENDCHAR
STARTCHAR ograve
ENCODING 242
SWIDTH 493 0
DWIDTH 28 0
BBX 1 1 0 0
BITMAP
00
ENDCHAR
STARTCHAR oacute
ENCODING 243
SWIDTH 493 0
DWIDTH 28 0
BBX 1 1 0 0
BITMAP
00
ENDCHAR
STARTCHAR ocircumflex
ENCODING 244
SWIDTH 493 0
DWIDTH 28 0
BBX 1 1 0 0
BITMAP
00
ENDCHAR
STARTCHAR otilde
ENCODING 245
SWIDTH 493 0
DWIDTH 28 0
BBX 1 1 0 0
BITMAP
00
ENDCHAR
STARTCHAR odieresis
ENCODING 246
SWIDTH 493 0
DWIDTH 28 0
BBX 1 1 0 0
BITMAP
00
ENDCHAR
STARTCHAR divide
ENCODING 247
SWIDTH 495 0
DWIDTH 28 0
BBX 1 1 0 0
BITMAP
00
ENDCHAR
STARTCHAR oslash
ENCODING 248
SWIDTH 493 0
DWIDTH 28 0
BBX 1 1 0 0
BITMAP
00
ENDCHAR
STARTCHAR ugrave
ENCODING 249
SWIDTH 517 0
DWIDTH 29 0
BBX 1 1 0 0
BITMAP
00
ENDCHAR
STARTCHAR uacute
ENCODING 250
SWIDTH 517 0
DWIDTH 29 0
BBX 1 1 0 0
BITMAP
00
ENDCHAR
STARTCHAR ucircumflex
ENCODING 251
SWIDTH 517 0
DWIDTH 29 0
BBX 1 1 0 0
BITMAP
00
ENDCHAR
STARTCHAR udieresis
ENCODING 252
SWIDTH 517 0
DWIDTH 29 0
BBX 1 1 0 0
BITMAP
00
ENDCHAR
STARTCHAR yacute
ENCODING 253
SWIDTH 423 0
DWIDTH 24 0
BBX 1 1 0 0
BITMAP
00
ENDCHAR
STARTCHAR thorn
ENCODING 254
SWIDTH 493 0
DWIDTH 28 0
BBX 1 1 0 0
BITMAP
00
ENDCHAR
STARTCHAR ydieresis
ENCODING 255
SWIDTH 423 0
DWIDTH 24 0
BBX 1 1 0 0
BITMAP
00
ENDCHAR
STARTCHAR dotlessi
ENCODING 305
SWIDTH 250 0
DWIDTH 14 0
BBX 1 1 0 0
BITMAP
00
ENDCHAR
STARTCHAR circumflex
ENCODING 710
SWIDTH 500 0
DWIDTH 29 0
BBX 1 1 0 0
BITMAP
00
ENDCHAR
STARTCHAR caron
ENCODING 711
SWIDTH 500 0
DWIDTH 29 0
BBX 1 1 0 0
BITMAP
00
ENDCHAR
STARTCHAR uni02C9
ENCODING 713
SWIDTH 500 0
DWIDTH 29 0
BBX 1 1 0 0
BITMAP
00
ENDCHAR
STARTCHAR breve
ENCODING 728
SWIDTH 500 0
DWIDTH 29 0
BBX 1 1 0 0
BITMAP
00
ENDCHAR
STARTCHAR dotaccent
ENCODING 729
SWIDTH 500 0
DWIDTH 29 0
BBX 1 1 0 0
BITMAP
00
ENDCHAR
STARTCHAR ring
ENCODING 730
SWIDTH 500 0
DWIDTH 29 0
BBX 1 1 0 0
BITMAP
00
ENDCHAR
STARTCHAR ogonek
ENCODING 731
SWIDTH 500 0
DWIDTH 29 0
BBX 1 1 0 0
BITMAP
00
ENDCHAR
STARTCHAR tilde
ENCODING 732
SWIDTH 500 0
DWIDTH 29 0
BBX 1 1 0 0
BITMAP
00
ENDCHAR
STARTCHAR hungarumlaut
ENCODING 733
SWIDTH 500 0
DWIDTH 29 0
BBX 1 1 0 0
BITMAP
00
ENDCHAR
STARTCHAR semicolon.dup4
ENCODING 894
SWIDTH 236 0
DWIDTH 14 0
BBX 9 29 2 2
BITMAP
3E00
7F00
FF80
FF80
FF80
FF80
7F80
7F00
1E00
0000
0000
0000
0000
0000
0000
0000
0800
3F00
7F80
FF80
FF80
FF80
FF80
7F80
3F80
1F00
3E00
3E00
1C00
ENDCHAR
STARTCHAR endash
ENCODING 8211
SWIDTH 541 0
DWIDTH 31 0
BBX 1 1 0 0
BITMAP
00
ENDCHAR
STARTCHAR emdash
ENCODING 8212
SWIDTH 1000 0
DWIDTH 57 0
BBX 1 1 0 0
BITMAP
00
ENDCHAR
STARTCHAR quoteleft
ENCODING 8216
SWIDTH 271 0
DWIDTH 16 0
BBX 1 1 0 0
BITMAP
00
ENDCHAR
STARTCHAR quoteright
ENCODING 8217
SWIDTH 271 0
DWIDTH 16 0
BBX 1 1 0 0
BITMAP
00
ENDCHAR
STARTCHAR quotesinglbase
ENCODING 8218
SWIDTH 271 0
DWIDTH 16 0
BBX 1 1 0 0
BITMAP
00
ENDCHAR
STARTCHAR quotedblleft
ENCODING 8220
SWIDTH 444 0
DWIDTH 25 0
BBX 1 1 0 0
BITMAP
00
ENDCHAR
STARTCHAR quotedblright
ENCODING 8221
SWIDTH 444 0
DWIDTH 25 0
BBX 1 1 0 0
BITMAP
00
ENDCHAR
STARTCHAR quotedblbase
ENCODING 8222
SWIDTH 444 0
DWIDTH 25 0
BBX 1 1 0 0
BITMAP
00
ENDCHAR
STARTCHAR dagger
ENCODING 8224
SWIDTH 495 0
DWIDTH 28 0
BBX 1 1 0 0
BITMAP
00
ENDCHAR
STARTCHAR daggerdbl
ENCODING 8225
SWIDTH 495 0
DWIDTH 28 0
BBX 1 1 0 0
BITMAP
00
ENDCHAR
STARTCHAR bullet
ENCODING 8226
SWIDTH 500 0
DWIDTH 29 0
BBX 1 1 0 0
BITMAP
00
ENDCHAR
STARTCHAR ellipsis
ENCODING 8230
SWIDTH 1000 0
DWIDTH 57 0
BBX 1 1 0 0
BITMAP
00
ENDCHAR
STARTCHAR guilsinglleft
ENCODING 8249
SWIDTH 308 0
DWIDTH 18 0
BBX 1 1 0 0
BITMAP
00
ENDCHAR
STARTCHAR guilsinglright
ENCODING 8250
SWIDTH 308 0
DWIDTH 18 0
BBX 1 1 0 0
BITMAP
00
ENDCHAR
STARTCHAR fraction
ENCODING 8260
SWIDTH 166 0
DWIDTH 10 0
BBX 1 1 0 0
BITMAP
00
ENDCHAR
STARTCHAR franc
ENCODING 8355
SWIDTH 495 0
DWIDTH 28 0
BBX 1 1 0 0
BITMAP
00
ENDCHAR
STARTCHAR lira
ENCODING 8356
SWIDTH 495 0
DWIDTH 28 0
BBX 1 1 0 0
BITMAP
00
ENDCHAR
STARTCHAR peseta
ENCODING 8359
SWIDTH 990 0
DWIDTH 56 0
BBX 1 1 0 0
BITMAP
00
ENDCHAR
STARTCHAR Euro
ENCODING 8364
SWIDTH 495 0
DWIDTH 28 0
BBX 1 1 0 0
BITMAP
00
ENDCHAR
STARTCHAR uni2116
ENCODING 8470
SWIDTH 1108 0
DWIDTH 63 0
BBX 1 1 0 0
BITMAP
00
ENDCHAR
STARTCHAR trademark
ENCODING 8482
SWIDTH 730 0
DWIDTH 42 0
BBX 1 1 0 0
BITMAP
00
ENDCHAR
STARTCHAR partialdiff
ENCODING 8706
SWIDTH 495 0
DWIDTH 28 0
BBX 1 1 0 0
BITMAP
00
ENDCHAR
STARTCHAR Delta
ENCODING 8710
SWIDTH 527 0
DWIDTH 30 0
BBX 1 1 0 0
BITMAP
00
ENDCHAR
STARTCHAR product
ENCODING 8719
SWIDTH 739 0
DWIDTH 42 0
BBX 1 1 0 0
BITMAP
00
ENDCHAR
STARTCHAR summation
ENCODING 8721
SWIDTH 588 0
DWIDTH 34 0
BBX 1 1 0 0
BITMAP
00
ENDCHAR
STARTCHAR minus
ENCODING 8722
SWIDTH 495 0
DWIDTH 28 0
BBX 1 1 0 0
BITMAP
00
ENDCHAR
STARTCHAR fraction.dup5
ENCODING 8725
SWIDTH 166 0
DWIDTH 10 0
BBX 1 1 0 0
BITMAP
00
ENDCHAR
STARTCHAR periodcentered.dup6
ENCODING 8729
SWIDTH 248 0
DWIDTH 14 0
BBX 1 1 0 0
BITMAP
00
ENDCHAR
STARTCHAR radical
ENCODING 8730
SWIDTH 495 0
DWIDTH 28 0
BBX 1 1 0 0
BITMAP
00
ENDCHAR
STARTCHAR infinity
ENCODING 8734
SWIDTH 495 0
DWIDTH 28 0
BBX 1 1 0 0
BITMAP
00
ENDCHAR
STARTCHAR integral
ENCODING 8747
SWIDTH 324 0
DWIDTH 19 0
BBX 1 1 0 0
BITMAP
00
ENDCHAR
STARTCHAR approxequal
ENCODING 8776
SWIDTH 495 0
DWIDTH 28 0
BBX 1 1 0 0
BITMAP
00
ENDCHAR
STARTCHAR lessequal
ENCODING 8804
SWIDTH 495 0
DWIDTH 28 0
BBX 1 1 0 0
BITMAP
00
ENDCHAR
STARTCHAR greaterequal
ENCODING 8805
SWIDTH 495 0
DWIDTH 28 0
BBX 1 1 0 0
BITMAP
00
ENDCHAR
STARTCHAR uniF001
ENCODING 61441
SWIDTH 523 0
DWIDTH 30 0
BBX 1 1 0 0
BITMAP
00
ENDCHAR
STARTCHAR uniF002
ENCODING 61442
SWIDTH 527 0
DWIDTH 30 0
BBX 1 1 0 0
BITMAP
00
ENDCHAR
STARTCHAR uniF001.dup7
ENCODING 64257
SWIDTH 523 0
DWIDTH 30 0
BBX 1 1 0 0
BITMAP
00
ENDCHAR
STARTCHAR uniF002.dup8
ENCODING 64258
SWIDTH 527 0
DWIDTH 30 0
BBX 1 1 0 0
BITMAP
00
ENDCHAR
STARTCHAR .notdef
ENCODING -1
SWIDTH 667 0
DWIDTH 38 0
BBX 34 37 2 0
BITMAP
000FFE0000
007FFFC000
03FFFFF000
07FFFFF800
1FFFFFFE00
3FFFFFFF00
3FFFFFFF00
7FFFFFFF80
7FFFFFFF80
FFFE1FFFC0
FFE001FFC0
FFC000FFC0
FF8000FFC0
7F8003FFC0
3F007FFFC0
0001FFFF80
0003FFFF80
0007FFFF80
0007FFFF00
000FFFFE00
000FFFFC00
000FFFF000
0007FF0000
0007F80000
0003F00000
0000000000
0000000000
0000000000
0003F00000
0007F80000
0007F80000
000FFC0000
000FFC0000
000FFC0000
0007F80000
0003F00000
0001E00000
ENDCHAR
STARTCHAR nonmarkingreturn
ENCODING -1
SWIDTH 248 0
DWIDTH 14 0
BBX 1 1 0 0
BITMAP
00
ENDCHAR
ENDFONT
